<mxfile host="app.diagrams.net" agent="Mozilla/5.0 (Windows NT 10.0; Win64; x64) AppleWebKit/537.36 (KHTML, like Gecko) Chrome/130.0.0.0 Safari/537.36" version="24.8.0" pages="2">
  <diagram id="C5RBs43oDa-KdzZeNtuy" name="Page-1">
    <mxGraphModel grid="1" page="1" gridSize="10" guides="1" tooltips="1" connect="1" arrows="1" fold="1" pageScale="1" pageWidth="1169" pageHeight="827" math="0" shadow="0">
      <root>
        <mxCell id="WIyWlLk6GJQsqaUBKTNV-0" />
        <mxCell id="WIyWlLk6GJQsqaUBKTNV-1" parent="WIyWlLk6GJQsqaUBKTNV-0" />
        <mxCell id="2XOMjzXHefBzV9I2Lgir-36" value="" style="rounded=0;whiteSpace=wrap;html=1;fillColor=#d0cee2;strokeColor=#56517e;opacity=20;" vertex="1" parent="WIyWlLk6GJQsqaUBKTNV-1">
          <mxGeometry x="40" y="40" width="1080" height="760" as="geometry" />
        </mxCell>
        <mxCell id="2XOMjzXHefBzV9I2Lgir-39" value="" style="rounded=0;whiteSpace=wrap;html=1;fillColor=#d0cee2;strokeColor=#56517e;opacity=20;" vertex="1" parent="WIyWlLk6GJQsqaUBKTNV-1">
          <mxGeometry x="820" y="60" width="280" height="720" as="geometry" />
        </mxCell>
        <mxCell id="JFoGD6rHAJTZOCNNvUR8-8" style="edgeStyle=orthogonalEdgeStyle;rounded=0;orthogonalLoop=1;jettySize=auto;html=1;exitX=1;exitY=0.25;exitDx=0;exitDy=0;entryX=0;entryY=0.5;entryDx=0;entryDy=0;" edge="1" parent="WIyWlLk6GJQsqaUBKTNV-1" source="2XOMjzXHefBzV9I2Lgir-0" target="2XOMjzXHefBzV9I2Lgir-9">
          <mxGeometry relative="1" as="geometry" />
        </mxCell>
        <mxCell id="JFoGD6rHAJTZOCNNvUR8-9" style="edgeStyle=orthogonalEdgeStyle;rounded=0;orthogonalLoop=1;jettySize=auto;html=1;exitX=1;exitY=0.75;exitDx=0;exitDy=0;entryX=0;entryY=0.5;entryDx=0;entryDy=0;" edge="1" parent="WIyWlLk6GJQsqaUBKTNV-1" source="2XOMjzXHefBzV9I2Lgir-0" target="2XOMjzXHefBzV9I2Lgir-10">
          <mxGeometry relative="1" as="geometry" />
        </mxCell>
        <mxCell id="JFoGD6rHAJTZOCNNvUR8-10" style="edgeStyle=orthogonalEdgeStyle;rounded=0;orthogonalLoop=1;jettySize=auto;html=1;exitX=0.25;exitY=1;exitDx=0;exitDy=0;entryX=0.5;entryY=0;entryDx=0;entryDy=0;" edge="1" parent="WIyWlLk6GJQsqaUBKTNV-1" source="2XOMjzXHefBzV9I2Lgir-0" target="B3I1mLiwsZ4JP3_jLyk7-5">
          <mxGeometry relative="1" as="geometry" />
        </mxCell>
        <mxCell id="JFoGD6rHAJTZOCNNvUR8-13" style="edgeStyle=orthogonalEdgeStyle;rounded=0;orthogonalLoop=1;jettySize=auto;html=1;exitX=0.75;exitY=0;exitDx=0;exitDy=0;" edge="1" parent="WIyWlLk6GJQsqaUBKTNV-1" source="2XOMjzXHefBzV9I2Lgir-0" target="2XOMjzXHefBzV9I2Lgir-2">
          <mxGeometry relative="1" as="geometry" />
        </mxCell>
        <mxCell id="JFoGD6rHAJTZOCNNvUR8-15" style="edgeStyle=orthogonalEdgeStyle;rounded=0;orthogonalLoop=1;jettySize=auto;html=1;exitX=0;exitY=0.5;exitDx=0;exitDy=0;entryX=1;entryY=0.5;entryDx=0;entryDy=0;" edge="1" parent="WIyWlLk6GJQsqaUBKTNV-1" source="2XOMjzXHefBzV9I2Lgir-0" target="JFoGD6rHAJTZOCNNvUR8-2">
          <mxGeometry relative="1" as="geometry" />
        </mxCell>
        <mxCell id="D_vA969ibdKJRpu3ATGD-14" value="" style="edgeStyle=orthogonalEdgeStyle;rounded=0;orthogonalLoop=1;jettySize=auto;html=1;exitX=0.25;exitY=0;exitDx=0;exitDy=0;" edge="1" parent="WIyWlLk6GJQsqaUBKTNV-1" source="2XOMjzXHefBzV9I2Lgir-0" target="D_vA969ibdKJRpu3ATGD-1">
          <mxGeometry relative="1" as="geometry" />
        </mxCell>
        <mxCell id="2XOMjzXHefBzV9I2Lgir-0" value="Pagina di&lt;div&gt;Default&lt;/div&gt;" style="rounded=1;whiteSpace=wrap;html=1;fillColor=#f8cecc;strokeColor=#b85450;perimeterSpacing=0;arcSize=19;fontSize=14;" vertex="1" parent="WIyWlLk6GJQsqaUBKTNV-1">
          <mxGeometry x="360" y="400" width="160" height="120" as="geometry" />
        </mxCell>
        <mxCell id="2XOMjzXHefBzV9I2Lgir-17" value="" style="edgeStyle=orthogonalEdgeStyle;rounded=0;orthogonalLoop=1;jettySize=auto;html=1;" edge="1" parent="WIyWlLk6GJQsqaUBKTNV-1" source="2XOMjzXHefBzV9I2Lgir-2" target="2XOMjzXHefBzV9I2Lgir-3">
          <mxGeometry relative="1" as="geometry" />
        </mxCell>
        <mxCell id="2XOMjzXHefBzV9I2Lgir-2" value="&lt;span style=&quot;font-size: 8px;&quot;&gt;Click su un servizio&lt;/span&gt;" style="ellipse;whiteSpace=wrap;html=1;fillColor=#e1d5e7;strokeColor=#9673a6;fontSize=10;verticalAlign=middle;horizontal=1;" vertex="1" parent="WIyWlLk6GJQsqaUBKTNV-1">
          <mxGeometry x="450" y="240" width="100" height="40" as="geometry" />
        </mxCell>
        <mxCell id="2XOMjzXHefBzV9I2Lgir-16" style="edgeStyle=orthogonalEdgeStyle;rounded=0;orthogonalLoop=1;jettySize=auto;html=1;exitX=1;exitY=0.5;exitDx=0;exitDy=0;" edge="1" parent="WIyWlLk6GJQsqaUBKTNV-1" source="2XOMjzXHefBzV9I2Lgir-3" target="2XOMjzXHefBzV9I2Lgir-6">
          <mxGeometry relative="1" as="geometry" />
        </mxCell>
        <mxCell id="2XOMjzXHefBzV9I2Lgir-3" value="Visualizza&lt;div&gt;servizio&lt;/div&gt;" style="rounded=1;whiteSpace=wrap;html=1;fillColor=#d5e8d4;strokeColor=#82b366;perimeterSpacing=0;gradientColor=none;arcSize=19;fontSize=14;" vertex="1" parent="WIyWlLk6GJQsqaUBKTNV-1">
          <mxGeometry x="440" y="80" width="120" height="80" as="geometry" />
        </mxCell>
        <mxCell id="2XOMjzXHefBzV9I2Lgir-26" value="" style="edgeStyle=orthogonalEdgeStyle;rounded=0;orthogonalLoop=1;jettySize=auto;html=1;" edge="1" parent="WIyWlLk6GJQsqaUBKTNV-1" source="2XOMjzXHefBzV9I2Lgir-6" target="2XOMjzXHefBzV9I2Lgir-12">
          <mxGeometry relative="1" as="geometry" />
        </mxCell>
        <mxCell id="2XOMjzXHefBzV9I2Lgir-6" value="&lt;font style=&quot;font-size: 8px;&quot;&gt;Click su&lt;br&gt;&quot;Compila sondggio&quot;&lt;/font&gt;" style="ellipse;whiteSpace=wrap;html=1;fillColor=#e1d5e7;strokeColor=#9673a6;fontSize=10;verticalAlign=top;" vertex="1" parent="WIyWlLk6GJQsqaUBKTNV-1">
          <mxGeometry x="610" y="100" width="100" height="40" as="geometry" />
        </mxCell>
        <mxCell id="2XOMjzXHefBzV9I2Lgir-21" value="" style="edgeStyle=orthogonalEdgeStyle;rounded=0;orthogonalLoop=1;jettySize=auto;html=1;" edge="1" parent="WIyWlLk6GJQsqaUBKTNV-1" source="2XOMjzXHefBzV9I2Lgir-9" target="2XOMjzXHefBzV9I2Lgir-13">
          <mxGeometry relative="1" as="geometry" />
        </mxCell>
        <mxCell id="2XOMjzXHefBzV9I2Lgir-9" value="&lt;span style=&quot;font-size: 8px;&quot;&gt;Click su &quot;Login&quot;&lt;/span&gt;" style="ellipse;whiteSpace=wrap;html=1;fillColor=#e1d5e7;strokeColor=#9673a6;fontSize=10;verticalAlign=middle;horizontal=1;" vertex="1" parent="WIyWlLk6GJQsqaUBKTNV-1">
          <mxGeometry x="610" y="400" width="100" height="40" as="geometry" />
        </mxCell>
        <mxCell id="2XOMjzXHefBzV9I2Lgir-23" value="" style="edgeStyle=orthogonalEdgeStyle;rounded=0;orthogonalLoop=1;jettySize=auto;html=1;" edge="1" parent="WIyWlLk6GJQsqaUBKTNV-1" source="2XOMjzXHefBzV9I2Lgir-10" target="2XOMjzXHefBzV9I2Lgir-11">
          <mxGeometry relative="1" as="geometry" />
        </mxCell>
        <mxCell id="2XOMjzXHefBzV9I2Lgir-10" value="&lt;span style=&quot;font-size: 8px;&quot;&gt;Click su &quot;Profile&quot;&lt;/span&gt;" style="ellipse;whiteSpace=wrap;html=1;fillColor=#e1d5e7;strokeColor=#9673a6;fontSize=10;verticalAlign=middle;horizontal=1;" vertex="1" parent="WIyWlLk6GJQsqaUBKTNV-1">
          <mxGeometry x="600" y="660" width="100" height="40" as="geometry" />
        </mxCell>
        <mxCell id="2XOMjzXHefBzV9I2Lgir-24" value="" style="edgeStyle=orthogonalEdgeStyle;rounded=0;orthogonalLoop=1;jettySize=auto;html=1;" edge="1" parent="WIyWlLk6GJQsqaUBKTNV-1" source="2XOMjzXHefBzV9I2Lgir-11" target="2XOMjzXHefBzV9I2Lgir-13">
          <mxGeometry relative="1" as="geometry" />
        </mxCell>
        <mxCell id="2XOMjzXHefBzV9I2Lgir-31" value="No" style="edgeLabel;html=1;align=center;verticalAlign=middle;resizable=0;points=[];" connectable="0" vertex="1" parent="2XOMjzXHefBzV9I2Lgir-24">
          <mxGeometry x="-0.6156" y="1" relative="1" as="geometry">
            <mxPoint x="1" as="offset" />
          </mxGeometry>
        </mxCell>
        <mxCell id="2XOMjzXHefBzV9I2Lgir-25" value="" style="edgeStyle=orthogonalEdgeStyle;rounded=0;orthogonalLoop=1;jettySize=auto;html=1;" edge="1" parent="WIyWlLk6GJQsqaUBKTNV-1" source="2XOMjzXHefBzV9I2Lgir-11" target="2XOMjzXHefBzV9I2Lgir-15">
          <mxGeometry relative="1" as="geometry" />
        </mxCell>
        <mxCell id="2XOMjzXHefBzV9I2Lgir-32" value="Si" style="edgeLabel;html=1;align=center;verticalAlign=middle;resizable=0;points=[];" connectable="0" vertex="1" parent="2XOMjzXHefBzV9I2Lgir-25">
          <mxGeometry x="-0.4253" relative="1" as="geometry">
            <mxPoint x="-10" as="offset" />
          </mxGeometry>
        </mxCell>
        <mxCell id="2XOMjzXHefBzV9I2Lgir-11" value="Logged" style="rhombus;whiteSpace=wrap;html=1;fontSize=9;" vertex="1" parent="WIyWlLk6GJQsqaUBKTNV-1">
          <mxGeometry x="790" y="650" width="60" height="60" as="geometry" />
        </mxCell>
        <mxCell id="2XOMjzXHefBzV9I2Lgir-27" value="" style="edgeStyle=orthogonalEdgeStyle;rounded=0;orthogonalLoop=1;jettySize=auto;html=1;" edge="1" parent="WIyWlLk6GJQsqaUBKTNV-1" source="2XOMjzXHefBzV9I2Lgir-12" target="2XOMjzXHefBzV9I2Lgir-14">
          <mxGeometry relative="1" as="geometry" />
        </mxCell>
        <mxCell id="2XOMjzXHefBzV9I2Lgir-33" value="Si" style="edgeLabel;html=1;align=center;verticalAlign=middle;resizable=0;points=[];" connectable="0" vertex="1" parent="2XOMjzXHefBzV9I2Lgir-27">
          <mxGeometry x="-0.5777" relative="1" as="geometry">
            <mxPoint x="-5" as="offset" />
          </mxGeometry>
        </mxCell>
        <mxCell id="2XOMjzXHefBzV9I2Lgir-28" style="edgeStyle=orthogonalEdgeStyle;rounded=0;orthogonalLoop=1;jettySize=auto;html=1;exitX=0.5;exitY=1;exitDx=0;exitDy=0;" edge="1" parent="WIyWlLk6GJQsqaUBKTNV-1" source="2XOMjzXHefBzV9I2Lgir-12" target="2XOMjzXHefBzV9I2Lgir-13">
          <mxGeometry relative="1" as="geometry" />
        </mxCell>
        <mxCell id="2XOMjzXHefBzV9I2Lgir-30" value="No" style="edgeLabel;html=1;align=center;verticalAlign=middle;resizable=0;points=[];" connectable="0" vertex="1" parent="2XOMjzXHefBzV9I2Lgir-28">
          <mxGeometry x="-0.5555" y="-1" relative="1" as="geometry">
            <mxPoint x="1" y="-19" as="offset" />
          </mxGeometry>
        </mxCell>
        <mxCell id="2XOMjzXHefBzV9I2Lgir-12" value="Logged" style="rhombus;whiteSpace=wrap;html=1;fontSize=9;" vertex="1" parent="WIyWlLk6GJQsqaUBKTNV-1">
          <mxGeometry x="790" y="90" width="60" height="60" as="geometry" />
        </mxCell>
        <mxCell id="rhDwD7fTeNbf7_iHnVp4-1" value="" style="edgeStyle=orthogonalEdgeStyle;rounded=0;orthogonalLoop=1;jettySize=auto;html=1;" edge="1" parent="WIyWlLk6GJQsqaUBKTNV-1" source="2XOMjzXHefBzV9I2Lgir-13" target="rhDwD7fTeNbf7_iHnVp4-0">
          <mxGeometry relative="1" as="geometry" />
        </mxCell>
        <mxCell id="2XOMjzXHefBzV9I2Lgir-13" value="&lt;font style=&quot;font-size: 14px;&quot;&gt;Pagina di&lt;/font&gt;&lt;div&gt;&lt;font style=&quot;font-size: 14px;&quot;&gt;Login&lt;/font&gt;&lt;/div&gt;" style="rounded=1;whiteSpace=wrap;html=1;fillColor=#d5e8d4;strokeColor=#82b366;perimeterSpacing=0;gradientColor=none;arcSize=19;fontSize=14;" vertex="1" parent="WIyWlLk6GJQsqaUBKTNV-1">
          <mxGeometry x="760" y="380" width="120" height="80" as="geometry" />
        </mxCell>
        <mxCell id="D_vA969ibdKJRpu3ATGD-10" value="" style="edgeStyle=orthogonalEdgeStyle;rounded=0;orthogonalLoop=1;jettySize=auto;html=1;" edge="1" parent="WIyWlLk6GJQsqaUBKTNV-1" source="2XOMjzXHefBzV9I2Lgir-14" target="D_vA969ibdKJRpu3ATGD-9">
          <mxGeometry relative="1" as="geometry" />
        </mxCell>
        <mxCell id="2XOMjzXHefBzV9I2Lgir-14" value="Compila&lt;div&gt;sondaggio&lt;/div&gt;" style="rounded=1;whiteSpace=wrap;html=1;fillColor=#d5e8d4;strokeColor=#82b366;perimeterSpacing=0;gradientColor=none;arcSize=19;fontSize=14;" vertex="1" parent="WIyWlLk6GJQsqaUBKTNV-1">
          <mxGeometry x="920" y="80" width="120" height="80" as="geometry" />
        </mxCell>
        <mxCell id="D_vA969ibdKJRpu3ATGD-13" value="" style="edgeStyle=orthogonalEdgeStyle;rounded=0;orthogonalLoop=1;jettySize=auto;html=1;" edge="1" parent="WIyWlLk6GJQsqaUBKTNV-1" source="2XOMjzXHefBzV9I2Lgir-15" target="D_vA969ibdKJRpu3ATGD-12">
          <mxGeometry relative="1" as="geometry" />
        </mxCell>
        <mxCell id="2XOMjzXHefBzV9I2Lgir-15" value="Modifica&lt;div&gt;impostazioni&lt;/div&gt;" style="rounded=1;whiteSpace=wrap;html=1;fillColor=#d5e8d4;strokeColor=#82b366;perimeterSpacing=0;gradientColor=none;arcSize=19;fontSize=14;" vertex="1" parent="WIyWlLk6GJQsqaUBKTNV-1">
          <mxGeometry x="920" y="640" width="120" height="80" as="geometry" />
        </mxCell>
        <mxCell id="2XOMjzXHefBzV9I2Lgir-40" value="USER FLOW" style="rounded=0;whiteSpace=wrap;html=1;fillColor=none;strokeColor=none;align=left;" vertex="1" parent="WIyWlLk6GJQsqaUBKTNV-1">
          <mxGeometry x="100" y="20" width="120" height="40" as="geometry" />
        </mxCell>
        <mxCell id="B3I1mLiwsZ4JP3_jLyk7-0" value="REGISTERED USER FLOW" style="rounded=0;whiteSpace=wrap;html=1;fillColor=none;strokeColor=none;align=left;" vertex="1" parent="WIyWlLk6GJQsqaUBKTNV-1">
          <mxGeometry x="840" y="40" width="180" height="40" as="geometry" />
        </mxCell>
        <mxCell id="D_vA969ibdKJRpu3ATGD-0" value="" style="edgeStyle=orthogonalEdgeStyle;rounded=0;orthogonalLoop=1;jettySize=auto;html=1;" edge="1" parent="WIyWlLk6GJQsqaUBKTNV-1" source="B3I1mLiwsZ4JP3_jLyk7-1" target="2XOMjzXHefBzV9I2Lgir-0">
          <mxGeometry relative="1" as="geometry">
            <Array as="points">
              <mxPoint x="500" y="510" />
              <mxPoint x="500" y="510" />
            </Array>
          </mxGeometry>
        </mxCell>
        <mxCell id="B3I1mLiwsZ4JP3_jLyk7-1" value="Inizio" style="ellipse;whiteSpace=wrap;html=1;aspect=fixed;fillColor=#008a00;strokeColor=#005700;fontColor=#ffffff;" vertex="1" parent="WIyWlLk6GJQsqaUBKTNV-1">
          <mxGeometry x="480" y="560" width="40" height="40" as="geometry" />
        </mxCell>
        <mxCell id="B3I1mLiwsZ4JP3_jLyk7-8" value="" style="edgeStyle=orthogonalEdgeStyle;rounded=0;orthogonalLoop=1;jettySize=auto;html=1;" edge="1" parent="WIyWlLk6GJQsqaUBKTNV-1" source="B3I1mLiwsZ4JP3_jLyk7-5" target="B3I1mLiwsZ4JP3_jLyk7-7">
          <mxGeometry relative="1" as="geometry" />
        </mxCell>
        <mxCell id="B3I1mLiwsZ4JP3_jLyk7-5" value="&lt;font style=&quot;font-size: 8px;&quot;&gt;Click su&lt;br&gt;&quot;Ricerca Servizi&quot;&lt;/font&gt;" style="ellipse;whiteSpace=wrap;html=1;fillColor=#e1d5e7;strokeColor=#9673a6;fontSize=10;verticalAlign=top;" vertex="1" parent="WIyWlLk6GJQsqaUBKTNV-1">
          <mxGeometry x="350" y="660" width="100" height="40" as="geometry" />
        </mxCell>
        <mxCell id="D_vA969ibdKJRpu3ATGD-16" style="edgeStyle=orthogonalEdgeStyle;rounded=0;orthogonalLoop=1;jettySize=auto;html=1;exitX=0;exitY=0.5;exitDx=0;exitDy=0;entryX=0;entryY=0.25;entryDx=0;entryDy=0;" edge="1" parent="WIyWlLk6GJQsqaUBKTNV-1" source="B3I1mLiwsZ4JP3_jLyk7-7" target="2XOMjzXHefBzV9I2Lgir-3">
          <mxGeometry relative="1" as="geometry">
            <mxPoint x="40" y="599.9999999999999" as="targetPoint" />
            <Array as="points">
              <mxPoint x="80" y="680" />
              <mxPoint x="80" y="100" />
            </Array>
          </mxGeometry>
        </mxCell>
        <mxCell id="B3I1mLiwsZ4JP3_jLyk7-7" value="Visualizzazione&lt;div&gt;servizi&lt;/div&gt;&lt;div&gt;filtrati&lt;/div&gt;" style="rounded=1;whiteSpace=wrap;html=1;fillColor=#d5e8d4;strokeColor=#82b366;perimeterSpacing=0;gradientColor=none;arcSize=19;fontSize=14;" vertex="1" parent="WIyWlLk6GJQsqaUBKTNV-1">
          <mxGeometry x="160" y="640" width="120" height="80" as="geometry" />
        </mxCell>
        <mxCell id="JFoGD6rHAJTZOCNNvUR8-16" style="edgeStyle=orthogonalEdgeStyle;rounded=0;orthogonalLoop=1;jettySize=auto;html=1;exitX=0.5;exitY=0;exitDx=0;exitDy=0;entryX=0.5;entryY=1;entryDx=0;entryDy=0;" edge="1" parent="WIyWlLk6GJQsqaUBKTNV-1" source="JFoGD6rHAJTZOCNNvUR8-2" target="JFoGD6rHAJTZOCNNvUR8-4">
          <mxGeometry relative="1" as="geometry" />
        </mxCell>
        <mxCell id="JFoGD6rHAJTZOCNNvUR8-2" value="&lt;span style=&quot;font-size: 8px;&quot;&gt;Click su &quot;Registrati&quot;&lt;/span&gt;" style="ellipse;whiteSpace=wrap;html=1;fillColor=#e1d5e7;strokeColor=#9673a6;fontSize=10;verticalAlign=middle;horizontal=1;" vertex="1" parent="WIyWlLk6GJQsqaUBKTNV-1">
          <mxGeometry x="130" y="440" width="100" height="40" as="geometry" />
        </mxCell>
        <mxCell id="D_vA969ibdKJRpu3ATGD-7" value="" style="edgeStyle=orthogonalEdgeStyle;rounded=0;orthogonalLoop=1;jettySize=auto;html=1;" edge="1" parent="WIyWlLk6GJQsqaUBKTNV-1" source="JFoGD6rHAJTZOCNNvUR8-4" target="D_vA969ibdKJRpu3ATGD-6">
          <mxGeometry relative="1" as="geometry" />
        </mxCell>
        <mxCell id="JFoGD6rHAJTZOCNNvUR8-4" value="Pagina di&lt;div&gt;Registrazione&lt;/div&gt;" style="rounded=1;whiteSpace=wrap;html=1;fillColor=#d5e8d4;strokeColor=#82b366;perimeterSpacing=0;gradientColor=none;arcSize=19;fontSize=14;" vertex="1" parent="WIyWlLk6GJQsqaUBKTNV-1">
          <mxGeometry x="120" y="240" width="120" height="80" as="geometry" />
        </mxCell>
        <mxCell id="JFoGD6rHAJTZOCNNvUR8-22" value="V2.0" style="rounded=0;whiteSpace=wrap;html=1;fillColor=none;strokeColor=none;align=left;verticalAlign=top;horizontal=1;fontStyle=1" vertex="1" parent="WIyWlLk6GJQsqaUBKTNV-1">
          <mxGeometry x="10" width="120" height="40" as="geometry" />
        </mxCell>
        <mxCell id="rhDwD7fTeNbf7_iHnVp4-0" value="Pausa" style="ellipse;whiteSpace=wrap;html=1;aspect=fixed;fillColor=#6a00ff;strokeColor=#3700CC;fontColor=#ffffff;" vertex="1" parent="WIyWlLk6GJQsqaUBKTNV-1">
          <mxGeometry x="920" y="400" width="40" height="40" as="geometry" />
        </mxCell>
        <mxCell id="D_vA969ibdKJRpu3ATGD-15" value="" style="edgeStyle=orthogonalEdgeStyle;rounded=0;orthogonalLoop=1;jettySize=auto;html=1;" edge="1" parent="WIyWlLk6GJQsqaUBKTNV-1" source="D_vA969ibdKJRpu3ATGD-1" target="D_vA969ibdKJRpu3ATGD-3">
          <mxGeometry relative="1" as="geometry" />
        </mxCell>
        <mxCell id="D_vA969ibdKJRpu3ATGD-1" value="&lt;span style=&quot;font-size: 8px;&quot;&gt;Click su &quot;Stellina&quot;&lt;/span&gt;" style="ellipse;whiteSpace=wrap;html=1;fillColor=#e1d5e7;strokeColor=#9673a6;fontSize=10;verticalAlign=middle;horizontal=1;" vertex="1" parent="WIyWlLk6GJQsqaUBKTNV-1">
          <mxGeometry x="310" y="280" width="100" height="40" as="geometry" />
        </mxCell>
        <mxCell id="D_vA969ibdKJRpu3ATGD-3" value="Visualizzazione&lt;div&gt;servizi&lt;/div&gt;&lt;div&gt;preferiti&lt;/div&gt;" style="rounded=1;whiteSpace=wrap;html=1;fillColor=#d5e8d4;strokeColor=#82b366;perimeterSpacing=0;gradientColor=none;arcSize=19;fontSize=14;" vertex="1" parent="WIyWlLk6GJQsqaUBKTNV-1">
          <mxGeometry x="240" y="120" width="120" height="80" as="geometry" />
        </mxCell>
        <mxCell id="D_vA969ibdKJRpu3ATGD-6" value="Pausa" style="ellipse;whiteSpace=wrap;html=1;aspect=fixed;fillColor=#6a00ff;strokeColor=#3700CC;fontColor=#ffffff;" vertex="1" parent="WIyWlLk6GJQsqaUBKTNV-1">
          <mxGeometry x="160" y="160" width="40" height="40" as="geometry" />
        </mxCell>
        <mxCell id="D_vA969ibdKJRpu3ATGD-9" value="Arrivo" style="ellipse;whiteSpace=wrap;html=1;aspect=fixed;fillColor=#0050ef;strokeColor=#001DBC;fontColor=#ffffff;" vertex="1" parent="WIyWlLk6GJQsqaUBKTNV-1">
          <mxGeometry x="960" y="200" width="40" height="40" as="geometry" />
        </mxCell>
        <mxCell id="D_vA969ibdKJRpu3ATGD-11" style="edgeStyle=orthogonalEdgeStyle;rounded=0;orthogonalLoop=1;jettySize=auto;html=1;exitX=0.5;exitY=1;exitDx=0;exitDy=0;" edge="1" parent="WIyWlLk6GJQsqaUBKTNV-1" source="rhDwD7fTeNbf7_iHnVp4-0" target="rhDwD7fTeNbf7_iHnVp4-0">
          <mxGeometry relative="1" as="geometry" />
        </mxCell>
        <mxCell id="D_vA969ibdKJRpu3ATGD-12" value="Arrivo" style="ellipse;whiteSpace=wrap;html=1;aspect=fixed;fillColor=#0050ef;strokeColor=#001DBC;fontColor=#ffffff;" vertex="1" parent="WIyWlLk6GJQsqaUBKTNV-1">
          <mxGeometry x="960" y="560" width="40" height="40" as="geometry" />
        </mxCell>
      </root>
    </mxGraphModel>
  </diagram>
  <diagram id="dT82G0C9oIwmB5THHUD6" name="Pagina-2">
    <mxGraphModel grid="1" page="1" gridSize="10" guides="1" tooltips="1" connect="1" arrows="1" fold="1" pageScale="1" pageWidth="1169" pageHeight="827" math="0" shadow="0">
      <root>
        <mxCell id="0" />
        <mxCell id="1" parent="0" />
        <mxCell id="dPfkrRBxxnNt2DTXn7P2-18" value="" style="rounded=0;whiteSpace=wrap;html=1;fillColor=#d0cee2;strokeColor=#56517e;opacity=20;" vertex="1" parent="1">
          <mxGeometry x="80" y="40" width="720" height="400" as="geometry" />
        </mxCell>
        <mxCell id="dPfkrRBxxnNt2DTXn7P2-19" value="" style="edgeStyle=orthogonalEdgeStyle;rounded=0;orthogonalLoop=1;jettySize=auto;html=1;" edge="1" parent="1" source="dPfkrRBxxnNt2DTXn7P2-22" target="dPfkrRBxxnNt2DTXn7P2-31">
          <mxGeometry relative="1" as="geometry" />
        </mxCell>
        <mxCell id="dPfkrRBxxnNt2DTXn7P2-20" value="" style="edgeStyle=orthogonalEdgeStyle;rounded=0;orthogonalLoop=1;jettySize=auto;html=1;" edge="1" parent="1" source="dPfkrRBxxnNt2DTXn7P2-22" target="dPfkrRBxxnNt2DTXn7P2-25">
          <mxGeometry relative="1" as="geometry" />
        </mxCell>
        <mxCell id="dPfkrRBxxnNt2DTXn7P2-21" value="" style="edgeStyle=orthogonalEdgeStyle;rounded=0;orthogonalLoop=1;jettySize=auto;html=1;" edge="1" parent="1" source="dPfkrRBxxnNt2DTXn7P2-22" target="dPfkrRBxxnNt2DTXn7P2-27">
          <mxGeometry relative="1" as="geometry" />
        </mxCell>
        <mxCell id="dPfkrRBxxnNt2DTXn7P2-22" value="Pagina di&lt;div&gt;Default&lt;/div&gt;" style="rounded=1;whiteSpace=wrap;html=1;fillColor=#f8cecc;strokeColor=#b85450;perimeterSpacing=0;arcSize=19;fontSize=14;" vertex="1" parent="1">
          <mxGeometry x="120" y="200" width="120" height="80" as="geometry" />
        </mxCell>
        <mxCell id="dPfkrRBxxnNt2DTXn7P2-23" value="&lt;font style=&quot;font-size: 14px;&quot;&gt;Pagina dei&lt;/font&gt;&lt;div&gt;&lt;font style=&quot;font-size: 14px;&quot;&gt;Sondaggi&lt;/font&gt;&lt;/div&gt;" style="rounded=1;whiteSpace=wrap;html=1;fillColor=#d5e8d4;strokeColor=#82b366;perimeterSpacing=0;gradientColor=none;arcSize=19;fontSize=14;" vertex="1" parent="1">
          <mxGeometry x="440" y="200" width="120" height="80" as="geometry" />
        </mxCell>
        <mxCell id="dPfkrRBxxnNt2DTXn7P2-24" value="" style="edgeStyle=orthogonalEdgeStyle;rounded=0;orthogonalLoop=1;jettySize=auto;html=1;" edge="1" parent="1" source="dPfkrRBxxnNt2DTXn7P2-25" target="dPfkrRBxxnNt2DTXn7P2-29">
          <mxGeometry relative="1" as="geometry" />
        </mxCell>
        <mxCell id="dPfkrRBxxnNt2DTXn7P2-25" value="&lt;font style=&quot;font-size: 8px;&quot;&gt;Click su&lt;br&gt;&quot;Modifica Form&quot;&lt;/font&gt;" style="ellipse;whiteSpace=wrap;html=1;fillColor=#e1d5e7;strokeColor=#9673a6;fontSize=10;verticalAlign=top;" vertex="1" parent="1">
          <mxGeometry x="130" y="340" width="100" height="40" as="geometry" />
        </mxCell>
        <mxCell id="dPfkrRBxxnNt2DTXn7P2-26" value="" style="edgeStyle=orthogonalEdgeStyle;rounded=0;orthogonalLoop=1;jettySize=auto;html=1;" edge="1" parent="1" source="dPfkrRBxxnNt2DTXn7P2-27" target="dPfkrRBxxnNt2DTXn7P2-23">
          <mxGeometry relative="1" as="geometry" />
        </mxCell>
        <mxCell id="dPfkrRBxxnNt2DTXn7P2-27" value="&lt;font style=&quot;font-size: 8px;&quot;&gt;Click su&lt;br&gt;&quot;Sondaggi&quot;&lt;/font&gt;" style="ellipse;whiteSpace=wrap;html=1;fillColor=#e1d5e7;strokeColor=#9673a6;fontSize=10;verticalAlign=top;" vertex="1" parent="1">
          <mxGeometry x="290" y="220" width="100" height="40" as="geometry" />
        </mxCell>
        <mxCell id="dPfkrRBxxnNt2DTXn7P2-28" value="Pagina delle&lt;div&gt;Segnalazioni&lt;/div&gt;" style="rounded=1;whiteSpace=wrap;html=1;fillColor=#d5e8d4;strokeColor=#82b366;perimeterSpacing=0;gradientColor=none;arcSize=19;fontSize=14;" vertex="1" parent="1">
          <mxGeometry x="440" y="80" width="120" height="80" as="geometry" />
        </mxCell>
        <mxCell id="dPfkrRBxxnNt2DTXn7P2-29" value="&lt;font style=&quot;font-size: 14px;&quot;&gt;Pagina di&lt;/font&gt;&lt;div&gt;&lt;font style=&quot;font-size: 14px;&quot;&gt;modifica Form&lt;/font&gt;&lt;/div&gt;" style="rounded=1;whiteSpace=wrap;html=1;fillColor=#d5e8d4;strokeColor=#82b366;perimeterSpacing=0;gradientColor=none;arcSize=19;fontSize=14;" vertex="1" parent="1">
          <mxGeometry x="440" y="320" width="120" height="80" as="geometry" />
        </mxCell>
        <mxCell id="dPfkrRBxxnNt2DTXn7P2-30" value="" style="edgeStyle=orthogonalEdgeStyle;rounded=0;orthogonalLoop=1;jettySize=auto;html=1;" edge="1" parent="1" source="dPfkrRBxxnNt2DTXn7P2-31" target="dPfkrRBxxnNt2DTXn7P2-28">
          <mxGeometry relative="1" as="geometry" />
        </mxCell>
        <mxCell id="dPfkrRBxxnNt2DTXn7P2-31" value="&lt;span style=&quot;font-size: 8px;&quot;&gt;Click su &quot;Stato&quot;&lt;/span&gt;" style="ellipse;whiteSpace=wrap;html=1;fillColor=#e1d5e7;strokeColor=#9673a6;fontSize=10;verticalAlign=middle;horizontal=1;" vertex="1" parent="1">
          <mxGeometry x="130" y="100" width="100" height="40" as="geometry" />
        </mxCell>
        <mxCell id="dPfkrRBxxnNt2DTXn7P2-32" value="GDS FLOW" style="rounded=0;whiteSpace=wrap;html=1;fillColor=none;strokeColor=none;align=left;" vertex="1" parent="1">
          <mxGeometry x="104" y="20" width="120" height="40" as="geometry" />
        </mxCell>
        <mxCell id="dPfkrRBxxnNt2DTXn7P2-33" value="" style="edgeStyle=orthogonalEdgeStyle;rounded=0;orthogonalLoop=1;jettySize=auto;html=1;" edge="1" parent="1" source="dPfkrRBxxnNt2DTXn7P2-34" target="dPfkrRBxxnNt2DTXn7P2-22">
          <mxGeometry relative="1" as="geometry" />
        </mxCell>
        <mxCell id="dPfkrRBxxnNt2DTXn7P2-34" value="Inizio" style="ellipse;whiteSpace=wrap;html=1;aspect=fixed;fillColor=#008a00;strokeColor=#005700;fontColor=#ffffff;" vertex="1" parent="1">
          <mxGeometry x="20" y="220" width="40" height="40" as="geometry" />
        </mxCell>
      </root>
    </mxGraphModel>
  </diagram>
</mxfile>
